<?xml version="1.0" encoding="UTF-8"?>
<!DOCTYPE svg PUBLIC "-//W3C//DTD SVG 1.1//EN" "http://www.w3.org/Graphics/SVG/1.1/DTD/svg11.dtd">
<svg xmlns="http://www.w3.org/2000/svg" version="1.1" width="256px" height="256px" style="shape-rendering:geometricPrecision; text-rendering:geometricPrecision; image-rendering:optimizeQuality; fill-rule:evenodd; clip-rule:evenodd" xmlns:xlink="http://www.w3.org/1999/xlink">
<g><path style="opacity:1" fill="#f8e07d" d="M -0.5,-0.5 C 84.8333,-0.5 170.167,-0.5 255.5,-0.5C 255.5,84.8333 255.5,170.167 255.5,255.5C 170.167,255.5 84.8333,255.5 -0.5,255.5C -0.5,170.167 -0.5,84.8333 -0.5,-0.5 Z"/></g>
<g><path style="opacity:1" fill="#434245" d="M 112.5,20.5 C 151.966,17.1483 185.132,29.8149 212,58.5C 217.175,68.1877 221.842,78.1877 226,88.5C 228.897,96.8453 230.563,105.512 231,114.5C 233.847,117.162 235.347,120.495 235.5,124.5C 231.507,130.117 229.507,136.45 229.5,143.5C 229.257,145.922 230.257,147.588 232.5,148.5C 230.997,149.052 229.331,149.052 227.5,148.5C 223.238,167.042 213.905,182.375 199.5,194.5C 198.985,196.225 198.318,197.892 197.5,199.5C 196.833,199.167 196.167,198.833 195.5,198.5C 189.782,201.686 184.448,205.352 179.5,209.5C 170.4,212.301 161.9,216.301 154,221.5C 154.046,223.313 153.88,224.979 153.5,226.5C 152.059,225.135 150.726,223.635 149.5,222C 146.843,221.825 144.176,221.992 141.5,222.5C 141.5,224.5 141.5,226.5 141.5,228.5C 139.048,228.376 137.048,227.376 135.5,225.5C 133.392,226.949 131.725,226.449 130.5,224C 127.957,223.86 125.623,223.194 123.5,222C 119.683,220.977 116.183,221.477 113,223.5C 109.677,221.179 106.177,219.179 102.5,217.5C 101.41,218.391 101.41,219.391 102.5,220.5C 101.167,222.167 99.8333,223.833 98.5,225.5C 105.389,229.862 104.722,232.862 96.5,234.5C 96.5,232.167 96.5,229.833 96.5,227.5C 95.5,227.5 94.5,227.5 93.5,227.5C 93.1395,222.778 91.6395,218.444 89,214.5C 86.834,212.879 84.334,212.045 81.5,212C 74.5396,206.708 67.8729,201.042 61.5,195C 55.9444,194.717 50.2778,194.717 44.5,195C 43.6364,196.697 42.3031,197.863 40.5,198.5C 40.3309,197.603 39.9976,196.603 39.5,195.5C 38.549,196.326 37.549,196.492 36.5,196C 37.5171,194.951 37.6838,193.784 37,192.5C 34.1667,189.667 31.3333,186.833 28.5,184C 26.5436,184.222 24.7103,185.055 23,186.5C 23.9721,184.796 25.1388,182.962 26.5,181C 26.1223,179.365 25.4556,177.865 24.5,176.5C 23.6043,177.506 22.9377,177.506 22.5,176.5C 24.295,170.586 27.795,165.92 33,162.5C 34.7478,159.761 34.9144,156.927 33.5,154C 34.6278,152.532 35.2945,150.865 35.5,149C 34.4287,144.881 33.5953,140.715 33,136.5C 32.2912,132.959 30.1245,130.959 26.5,130.5C 24.6385,131.528 23.3052,133.028 22.5,135C 21.365,135.749 20.365,135.583 19.5,134.5C 20.6667,132.833 21.8333,131.167 23,129.5C 23.3333,124.167 23.6667,118.833 24,113.5C 25.7134,112.122 27.0467,110.455 28,108.5C 28.9549,99.2129 32.2883,90.8796 38,83.5C 39.6384,79.2082 39.8051,74.8748 38.5,70.5C 39.1985,66.9673 41.1985,64.4673 44.5,63C 46.9519,62.7105 49.2852,62.0438 51.5,61C 58.3062,52.8604 65.8062,45.3604 74,38.5C 75.0757,34.9711 76.5757,31.6378 78.5,28.5C 78.2907,27.914 77.9574,27.414 77.5,27C 82.0827,27.7587 86.7493,28.0921 91.5,28C 97.4838,26.3369 103.484,24.6703 109.5,23C 110.942,22.6232 111.942,21.7899 112.5,20.5 Z"/></g>
<g><path style="opacity:1" fill="#f6de7d" d="M 101.5,66.5 C 102.892,67.522 104.225,67.1887 105.5,65.5C 106.654,62.8985 107.154,60.2318 107,57.5C 105.858,59.6787 105.025,62.0121 104.5,64.5C 104.043,65.2975 103.376,65.6309 102.5,65.5C 100.613,64.2321 99.6132,62.3987 99.5,60C 100.905,53.341 104.405,48.1744 110,44.5C 110.473,42.221 111.473,40.221 113,38.5C 114.049,39.5171 115.216,39.6838 116.5,39C 118.405,37.1847 120.072,35.1847 121.5,33C 126.711,31.3236 130.711,32.657 133.5,37C 134.333,37.1667 135.167,37.3333 136,37.5C 138.611,36.3927 141.111,35.0593 143.5,33.5C 148.721,38.214 154.388,42.3807 160.5,46C 166.717,45.9363 172.717,46.9363 178.5,49C 190.585,56.4187 199.918,66.4187 206.5,79C 203.977,84.9936 205.643,89.1603 211.5,91.5C 223.745,128.687 216.078,161.187 188.5,189C 180.426,195.367 171.759,200.7 162.5,205C 156.487,205.838 150.487,206.671 144.5,207.5C 144.762,206.022 144.429,204.689 143.5,203.5C 141.49,208.045 139.157,208.378 136.5,204.5C 125.901,204.808 115.235,205.142 104.5,205.5C 98.8879,204.53 93.5546,202.696 88.5,200C 52.6162,178.731 37.1162,147.231 42,105.5C 44.155,99.8566 46.8217,94.5233 50,89.5C 54.0963,86.1379 58.4297,83.1379 63,80.5C 64.3844,73.5888 64.8844,66.5888 64.5,59.5C 67.989,59.8627 71.489,60.196 75,60.5C 80.2318,58.7848 85.5651,58.1182 91,58.5C 92.6268,58.6251 94.1268,59.1251 95.5,60C 97.4002,62.3353 99.4002,64.502 101.5,66.5 Z"/></g>
<g><path style="opacity:1" fill="#9a8c5d" d="M 101.5,66.5 C 102.167,66.5 102.5,66.1667 102.5,65.5C 103.376,65.6309 104.043,65.2975 104.5,64.5C 105.025,62.0121 105.858,59.6787 107,57.5C 107.154,60.2318 106.654,62.8985 105.5,65.5C 104.225,67.1887 102.892,67.522 101.5,66.5 Z"/></g>
<g><path style="opacity:1" fill="#424245" d="M 92.5,161.5 C 91.7375,160.732 90.7375,160.232 89.5,160C 84.1771,159.501 78.8437,159.334 73.5,159.5C 68.1518,159.264 64.9852,156.597 64,151.5C 63.1717,146.798 63.3384,142.131 64.5,137.5C 65.5211,135.381 67.0211,133.714 69,132.5C 69.6667,128.833 69.6667,125.167 69,121.5C 64.8908,115.835 63.2242,109.501 64,102.5C 72.014,98.723 80.514,96.5563 89.5,96C 118.946,96.412 148.279,94.912 177.5,91.5C 185.939,91.7706 190.772,96.104 192,104.5C 192.512,119.513 192.179,134.513 191,149.5C 190.81,153.076 189.643,156.242 187.5,159C 182.585,160.416 177.585,161.416 172.5,162C 160.833,162.167 149.167,162.333 137.5,162.5C 125.344,162.48 113.344,161.813 101.5,160.5C 100.914,160.709 100.414,161.043 100,161.5C 99.7508,160.376 99.2508,159.376 98.5,158.5C 97.8333,159.833 97.1667,161.167 96.5,162.5C 95.4718,160.42 94.1385,160.086 92.5,161.5 Z"/></g>
<g><path style="opacity:1" fill="#f3dc7c" d="M 110.5,104.5 C 114.437,104.207 118.27,104.54 122,105.5C 124.651,118.146 124.984,130.813 123,143.5C 120.094,146.037 116.927,148.204 113.5,150C 105.833,150.667 98.1667,150.667 90.5,150C 86.7587,148.262 83.592,145.762 81,142.5C 80.4604,130.49 80.627,118.49 81.5,106.5C 85.8839,106.174 90.2172,106.508 94.5,107.5C 93.26,116.147 93.26,124.813 94.5,133.5C 99.497,134.666 104.497,134.666 109.5,133.5C 110.474,123.887 110.808,114.22 110.5,104.5 Z"/></g>
<g><path style="opacity:1" fill="#f3dc7c" d="M 132.5,106.5 C 144.997,106.092 157.33,107.259 169.5,110C 171.617,111.731 173.117,113.898 174,116.5C 174.667,122.833 174.667,129.167 174,135.5C 173.573,139.527 171.406,142.027 167.5,143C 157.125,145.072 146.792,147.239 136.5,149.5C 134.552,135.232 133.219,120.899 132.5,106.5 Z"/></g>
<g><path style="opacity:1" fill="#434345" d="M 143.5,118.5 C 147.884,118.174 152.217,118.508 156.5,119.5C 159.496,123.305 160.163,127.471 158.5,132C 154.089,134.125 149.422,135.292 144.5,135.5C 144.625,129.797 144.292,124.13 143.5,118.5 Z"/></g>
<g><path style="opacity:1" fill="#a6975f" d="M 73.5,159.5 C 78.8437,159.334 84.1771,159.501 89.5,160C 90.7375,160.232 91.7375,160.732 92.5,161.5C 86.008,161.006 79.6747,160.339 73.5,159.5 Z"/></g>
</svg>
